<?xml version="1.0" standalone="no"?>
<!DOCTYPE svg PUBLIC "-//W3C//DTD SVG 20010904//EN"
 "http://www.w3.org/TR/2001/REC-SVG-20010904/DTD/svg10.dtd">
<svg version="1.0" xmlns="http://www.w3.org/2000/svg"
 width="300.000000pt" height="300.000000pt" viewBox="0 0 300.000000 300.000000"
 preserveAspectRatio="xMidYMid meet">
<metadata>
Created by potrace 1.11, written by Peter Selinger 2001-2013
</metadata>
<g transform="translate(0.000000,300.000000) scale(0.100000,-0.100000)"
fill="#000000" stroke="none">
<path d="M2040 2263 c-69 -36 -94 -78 -86 -147 8 -73 49 -149 109 -201 l52
-45 -61 0 c-42 0 -65 -5 -74 -15 -10 -12 -15 -12 -35 1 -32 21 -91 24 -144 8
-29 -8 -50 -10 -62 -4 -24 13 -779 12 -795 -1 -9 -7 -26 -6 -56 4 -52 18 -109
14 -158 -12 -33 -17 -38 -17 -66 -3 -18 10 -64 17 -122 20 -79 4 -96 2 -113
-14 -17 -15 -120 -310 -118 -338 0 -4 -15 -20 -35 -33 -117 -84 -145 -265 -59
-380 l24 -33 -33 -106 c-29 -97 -31 -108 -17 -132 18 -33 45 -39 154 -36 108
4 97 4 166 -2 37 -4 67 -1 91 9 29 12 38 13 59 1 13 -8 44 -14 69 -13 79 1 86
-1 100 -26 18 -35 87 -59 147 -52 62 7 94 23 124 63 20 27 27 30 48 22 41 -15
105 -12 146 8 39 19 41 19 75 1 27 -14 50 -17 98 -14 56 4 66 2 88 -18 56 -52
131 -37 184 37 28 38 57 93 64 123 2 6 6 17 9 25 3 8 8 27 11 42 6 25 7 26 33
13 42 -21 78 -25 115 -13 30 9 39 7 73 -16 44 -30 86 -30 133 0 41 26 66 59
109 143 35 67 94 180 100 190 1 1 41 -9 90 -23 227 -68 354 -35 355 92 0 29
-9 66 -21 94 -23 48 -123 171 -165 202 l-25 18 22 37 c13 20 27 43 32 52 6 9
23 33 38 52 41 52 39 92 -7 134 l-37 34 26 21 c68 53 46 127 -52 177 -43 21
-169 54 -253 66 -25 3 -101 8 -171 10 -121 5 -127 4 -179 -22z"/>
</g>
</svg>
